<svg width="40" height="40" viewBox="0 0 40 40" fill="none" xmlns="http://www.w3.org/2000/svg">
<g clip-path="url(#clip0_260_72)">
<path d="M20 0C31.0457 0 40 8.95431 40 20C40 31.0457 31.0457 40 20 40C8.95431 40 0 31.0457 0 20C0 8.95431 8.95431 0 20 0ZM22.0967 10C19.2451 10 17.3701 11.7578 17.3701 14.8828V17.6562H14.167V21.25H17.3701V30H21.2764V21.25H24.2061L24.7529 17.6562H21.2764V15.3125C21.2764 14.2969 21.7451 13.3594 23.3076 13.3594H24.9092V10.2734C24.9092 10.2734 23.4638 10 22.0967 10Z" fill="#DCDBC4"/>
</g>
<defs>
<clipPath id="clip0_260_72">
<rect width="40" height="40" fill="white"/>
</clipPath>
</defs>
</svg>
