<svg width="29" height="31" viewBox="0 0 29 31" fill="none" xmlns="http://www.w3.org/2000/svg">
<path d="M15.465 12.1502L15.0608 13.9694L15.4471 25.6817L6.55276 28.8661L8.37207 23.8541L10.8585 14.8774L15.465 12.1502Z" fill="#71713D"/>
<path d="M16.9768 11.0177C22.8212 8.57485 23.911 17.5451 22.7509 23.4341C19.9698 22.5084 14.9215 18.7291 16.9768 11.0177Z" fill="#71713D"/>
<path d="M0.552828 9.47198C3.21379 8.22397 9.66759 6.71307 14.1951 10.6536C12.0066 12.6034 6.21426 15.0969 0.552828 9.47198Z" fill="#71713D"/>
<ellipse cx="10.047" cy="4.41361" rx="2.70813" ry="3.39453" transform="rotate(-53.4468 10.047 4.41361)" fill="#71713D"/>
<ellipse cx="17.2059" cy="7.04558" rx="2.70813" ry="3.39453" transform="rotate(39.7863 17.2059 7.04558)" fill="#71713D"/>
<ellipse cx="5.37267" cy="16.9215" rx="2.70813" ry="3.39453" transform="rotate(-15.7675 5.37267 16.9215)" fill="#71713D"/>
</svg>
