<svg width="40" height="40" viewBox="0 0 40 40" fill="none" xmlns="http://www.w3.org/2000/svg">
<g clip-path="url(#clip0_260_73)">
<path d="M20 0C31.0457 0 40 8.95431 40 20C40 31.0457 31.0457 40 20 40C8.95431 40 0 31.0457 0 20C0 8.95431 8.95431 0 20 0ZM24.1299 10.0674C22.4781 9.9781 17.5219 9.9781 15.8701 10.0674C14.2632 10.1567 12.8791 10.5132 11.6738 11.6738C10.5132 12.8344 10.1567 14.2632 10.0674 15.8701C9.9781 17.5219 9.9781 22.4781 10.0674 24.1299C10.1567 25.7368 10.5132 27.1209 11.6738 28.3262C12.8791 29.4868 14.2632 29.8433 15.8701 29.9326C17.5219 30.0219 22.4781 30.0219 24.1299 29.9326C25.7368 29.8433 27.1656 29.4868 28.3262 28.3262C29.4868 27.1209 29.8433 25.7368 29.9326 24.1299C30.0219 22.4781 30.0219 17.5219 29.9326 15.8701C29.8433 14.2632 29.4868 12.8344 28.3262 11.6738C27.1656 10.5132 25.7368 10.1567 24.1299 10.0674ZM20.0225 11.8076C21.4511 11.8076 24.5758 11.6743 25.915 12.21C26.7633 12.5225 27.4329 13.2367 27.79 14.085C28.3257 15.4242 28.1924 18.5489 28.1924 19.9775C28.1924 21.4506 28.3256 24.5753 27.79 25.8701C27.4775 26.763 26.7633 27.4329 25.915 27.79C24.5758 28.3257 21.4511 28.1924 20.0225 28.1924C18.5494 28.1924 15.4247 28.3256 14.1299 27.79C13.237 27.4329 12.5671 26.763 12.21 25.8701C11.6744 24.5753 11.8076 21.4506 11.8076 19.9775C11.8076 18.5489 11.6743 15.4242 12.21 14.085C12.5671 13.2367 13.237 12.5671 14.1299 12.21C15.4247 11.6744 18.5494 11.8076 20.0225 11.8076ZM20.0225 14.8438C17.1654 14.8438 14.8887 17.1651 14.8887 19.9775C14.8887 22.8347 17.1653 25.1113 20.0225 25.1113C22.8349 25.1113 25.1562 22.8346 25.1562 19.9775C25.1562 17.1651 22.8349 14.8438 20.0225 14.8438ZM20.0225 16.6738C21.8527 16.6739 23.3261 18.1473 23.3262 19.9775C23.3262 21.8525 21.8528 23.3261 20.0225 23.3262C18.1921 23.3262 16.6738 21.8525 16.6738 19.9775C16.6739 18.1472 18.1475 16.6738 20.0225 16.6738ZM25.335 13.46C24.6654 13.46 24.13 13.9955 24.1299 14.665C24.1299 15.3347 24.6653 15.8701 25.335 15.8701C26.0045 15.87 26.54 15.3346 26.54 14.665C26.54 13.9955 26.0045 13.46 25.335 13.46Z" fill="#DCDBC4"/>
</g>
<defs>
<clipPath id="clip0_260_73">
<rect width="40" height="40" fill="white"/>
</clipPath>
</defs>
</svg>
