<svg width="28" height="28" viewBox="0 0 28 28" fill="none" xmlns="http://www.w3.org/2000/svg">
<path d="M20.8728 25.5804L19.86 26.2408L19.7826 25.1474L16.2287 22.0635C15.0612 23.4935 12.5849 26.4654 12.0202 26.9135C11.4555 27.3616 9.81967 27.0563 9.07237 26.8476L9.90689 25.8859L9.61382 21.7471C7.86423 21.7925 4.14419 21.8677 3.26075 21.8046C2.3773 21.7416 1.22024 20.3271 0.752132 19.6278L1.85644 19.7066L4.86776 16.2363L0.143204 12.1366L7.85773e-05 9.00744L0.878094 9.76933L5.46337 9.13069L5.15196 3.07035L7.43764 0.436302L7.5624 1.64394L10.8316 5.14037L14.7056 0.000140497L18.3199 0.0581419L17.5218 0.977968L17.9624 5.53799L24.0897 5.06487L26.5565 7.20543L25.3434 7.25209L22.4046 10.6387L27.171 14.7747L27.728 15.991L27.2944 18.18L26.4582 17.4544L21.7924 17.51L22.3965 23.8244L20.8728 25.5804Z" fill="#C84C07"/>
</svg>
